PathFileType	4	(x/y/z)	Passive_Pref0006.trc
DataRate	CameraRate	NumFrames	NumMarkers	Units	OrigDataRate	OrigDataStartFrame	OrigNumFrames
240	240	5	50	mm	240	76	300
Frame#	Time	R_AC			L_AC			HEAD			STERN			C7			L_IC			R_IC			L_ASIS			R_ASIS			L_GT			R_GT			R_PSIS			L_PSIS			SACRAL			L_LAT_KNEE			L_MED_KNEE			R_LAT_KNEE			R_MED_KNEE			L_LAT_ANK			L_MED_ANK			R_LAT_ANK			R_MED_ANK			L_THIGH_PROX_POST			L_THIGH_PROX_ANT			L_THIGH_DIST_ANT			L_THIGH_DIST_POST			R_THIGH_PROX_POST			R_THIGH_PROX_ANT			R_THIGH_DIST_ANT			R_THIGH_DIST_POST			L_SHANK_PROX_POST			L_SHANK_PROX_ANT			L_SHANK_DIST_ANT			L_SHANK_DIST_POST			R_SHANK_PROX_POST			R_SHANK_PROX_ANT			R_SHANK_DIST_ANT			R_SHANK_DIST_POST			L_HEEL_LAT			L_HEEL_SUP			L_HEEL_MED			R_HEEL_LAT			R_HEEL_SUP			R_HEEL_MED			L_1ST_MET			L_5TH_MET			L_TOE			R_1ST_MET			R_5TH_MET			R_TOE			
		X1	Y1	Z1	X2	Y2	Z2	X3	Y3	Z3	X4	Y4	Z4	X5	Y5	Z5	X6	Y6	Z6	X7	Y7	Z7	X8	Y8	Z8	X9	Y9	Z9	X10	Y10	Z10	X11	Y11	Z11	X12	Y12	Z12	X13	Y13	Z13	X14	Y14	Z14	X15	Y15	Z15	X16	Y16	Z16	X17	Y17	Z17	X18	Y18	Z18	X19	Y19	Z19	X20	Y20	Z20	X21	Y21	Z21	X22	Y22	Z22	X23	Y23	Z23	X24	Y24	Z24	X25	Y25	Z25	X26	Y26	Z26	X27	Y27	Z27	X28	Y28	Z28	X29	Y29	Z29	X30	Y30	Z30	X31	Y31	Z31	X32	Y32	Z32	X33	Y33	Z33	X34	Y34	Z34	X35	Y35	Z35	X36	Y36	Z36	X37	Y37	Z37	X38	Y38	Z38	X39	Y39	Z39	X40	Y40	Z40	X41	Y41	Z41	X42	Y42	Z42	X43	Y43	Z43	X44	Y44	Z44	X45	Y45	Z45	X46	Y46	Z46	X47	Y47	Z47	X48	Y48	Z48	X49	Y49	Z49	X50	Y50	Z50	

76	0.31355	-368.66	1536.7	485.49	-384.72	1545.4	80.441	-309.53	1852.6	284.47	-288.53	1488.5	291.11	-442.49	1580.4	289.28	-403.38	1106.9	132.96	-392.71	1133.4	470.83	-328.32	1038	164.15	-323.83	1045	434.63	-432.44	954.95	120.37	-417.73	958.38	485.48	-540.26	1034.8	347.61	-547.05	1041.2	262.52	-553.16	1004.5	301.77	-383.21	552.52	163.58	-359.72	571.11	299.29	-296.76	559.34	486.57	-273.79	554.05	348.45	-423.52	113.81	211.29	-434.55	117.99	293.64	-611.41	233.31	426.97	-560.65	234.53	331.84	-386.61	787.72	130.94	-323.83	787.61	156.76	-321.44	716.24	168.02	-381.01	712.06	144.08	-415.61	802.21	470.71	-359.68	823	496.34	-343.55	749.4	494.15	-388.5	731.84	468.97	-379.37	497.99	179.01	-326.04	527.11	190.01	-324.3	461.04	207.18	-374.84	436.38	185.94	-421.52	467.8	483.85	-377.62	429.62	483.75	-429.35	374.92	469.24	-472.63	410.25	468.27	-480.74	48.604	211.02	-501.5	76.434	241.62	-498.46	48.834	279.24	-694.13	248.84	379.81	-669.36	269.02	347.89	-665.21	232.94	321.37	-284.06	42.427	334.23	-281.51	40.261	215.07	-222.69	67.977	298.06	-507.8	91.716	350.53	-560.65	104.84	458.3	-470.6	69.147	412.69
77	0.31773	-363.98	1537	485.52	-379.42	1545.8	80.45	-304.31	1852.9	284.64	-283.6	1488.8	291.2	-437.45	1580.8	289.18	-398.59	1107.2	132.73	-387.87	1133.8	470.61	-323.69	1038.2	163.78	-318.89	1045.6	434.23	-427.99	955.2	120.18	-412.29	958.92	485.39	-535.4	1034.9	347.62	-542.28	1041.4	262.55	-548.28	1004.6	301.77	-380.86	552.6	163.37	-357.29	571.12	299.09	-287.56	560.78	486.34	-265.18	555.73	348.17	-423.21	114.03	211.24	-434.38	118.13	293.48	-597.48	229.62	427.17	-546.95	231.82	331.95	-382.98	787.9	130.75	-320.19	787.48	156.49	-318.12	716.07	167.78	-377.77	712.18	143.89	-408.8	802.72	471.05	-352.87	824.07	496.32	-336.14	750.62	494.27	-381.14	732.57	469.38	-377.27	498.06	178.83	-323.8	526.96	189.81	-322.34	460.88	207.02	-373	436.42	185.78	-411.32	467.24	483.85	-366.81	429.76	483.59	-417.66	374.27	469.24	-461.51	408.96	468.47	-480.61	48.846	210.99	-501.2	76.647	241.59	-498.51	49.159	279.2	-680.66	243.33	380.29	-656.53	264.05	348.24	-651.56	227.99	321.79	-283.98	42.28	334.23	-281.39	40.154	215.09	-222.51	67.655	298.09	-490.92	90.301	350.71	-543.88	102.38	458.57	-453.15	68.638	412.79
78	0.32191	-359.27	1537.3	485.54	-374.14	1546.2	80.458	-299.11	1853.2	284.81	-278.66	1489	291.27	-432.4	1581.1	289.09	-393.82	1107.4	132.51	-383.03	1134.2	470.4	-319.06	1038.3	163.42	-313.95	1046.2	433.85	-423.57	955.43	119.99	-406.86	959.44	485.3	-530.56	1035	347.64	-537.52	1041.6	262.6	-543.43	1004.7	301.79	-378.52	552.67	163.19	-354.87	571.13	298.91	-278.49	562.22	486.09	-256.71	557.38	347.87	-422.89	114.25	211.19	-434.22	118.26	293.32	-583.43	225.83	427.38	-533.14	229.02	332.06	-379.37	788.07	130.57	-316.58	787.35	156.25	-314.82	715.89	167.55	-374.55	712.29	143.71	-402.03	803.22	471.41	-346.1	825.11	496.31	-328.78	751.82	494.4	-373.85	733.3	469.8	-375.18	498.12	178.66	-321.56	526.8	189.64	-320.4	460.71	206.88	-371.17	436.46	185.64	-401.18	466.64	483.85	-356.06	429.88	483.42	-405.99	373.59	469.25	-450.41	407.6	468.67	-480.48	49.095	210.96	-500.88	76.857	241.56	-498.53	49.472	279.17	-667.01	237.67	380.76	-643.56	258.92	348.58	-637.73	222.9	322.21	-283.9	42.14	334.22	-281.27	40.055	215.11	-222.33	67.342	298.11	-473.92	88.862	350.92	-527	99.886	458.87	-435.62	68.135	412.93
79	0.32609	-354.53	1537.5	485.56	-368.87	1546.6	80.466	-293.93	1853.4	284.99	-273.71	1489.2	291.33	-427.35	1581.4	289.01	-389.1	1107.6	132.29	-378.17	1134.5	470.21	-314.45	1038.4	163.07	-309	1046.7	433.47	-419.17	955.63	119.81	-401.45	959.95	485.22	-525.73	1035	347.67	-532.77	1041.8	262.65	-538.58	1004.8	301.82	-376.19	552.74	163.02	-352.47	571.13	298.74	-269.53	563.63	485.84	-248.37	558.99	347.57	-422.56	114.48	211.14	-434.07	118.4	293.16	-569.28	221.96	427.59	-519.2	226.11	332.18	-375.79	788.23	130.41	-312.98	787.21	156.03	-311.54	715.7	167.33	-371.34	712.39	143.54	-395.28	803.71	471.77	-339.38	826.14	496.3	-321.48	753	494.53	-366.63	734.03	470.22	-373.1	498.19	178.51	-319.34	526.63	189.48	-318.46	460.55	206.75	-369.34	436.51	185.52	-391.11	465.98	483.83	-345.39	429.97	483.24	-394.34	372.87	469.27	-439.33	406.18	468.86	-480.35	49.348	210.93	-500.55	77.062	241.54	-498.5	49.77	279.14	-653.18	231.89	381.19	-630.43	253.66	348.88	-623.72	217.7	322.62	-283.84	42.008	334.22	-281.15	39.963	215.13	-222.16	67.037	298.15	-456.82	87.408	351.18	-510.02	97.384	459.18	-418.03	67.646	413.12
80	0.33027	-349.75	1537.7	485.58	-363.6	1546.9	80.473	-288.75	1853.6	285.18	-268.75	1489.4	291.38	-422.3	1581.7	288.93	-384.4	1107.8	132.09	-373.31	1134.8	470.02	-309.85	1038.4	162.73	-304.05	1047.2	433.1	-414.79	955.82	119.64	-396.06	960.42	485.15	-520.9	1035.1	347.72	-528.03	1041.9	262.73	-533.76	1004.9	301.87	-373.88	552.8	162.87	-350.08	571.13	298.6	-260.71	565.03	485.57	-240.17	560.55	347.27	-422.24	114.72	211.09	-433.91	118.54	293	-555.02	218.01	427.8	-505.15	223.12	332.3	-372.23	788.37	130.27	-309.4	787.06	155.85	-308.28	715.51	167.13	-368.16	712.49	143.39	-388.56	804.19	472.15	-332.72	827.14	496.28	-314.24	754.15	494.65	-359.47	734.74	470.63	-371.03	498.25	178.38	-317.14	526.47	189.35	-316.54	460.39	206.63	-367.53	436.55	185.4	-381.11	465.27	483.79	-334.78	430.03	483.06	-382.72	372.12	469.3	-428.28	404.7	469.05	-480.23	49.607	210.9	-500.2	77.265	241.51	-498.41	50.051	279.11	-639.19	225.99	381.61	-617.14	248.28	349.16	-609.53	212.39	323.02	-283.77	41.886	334.21	-281.04	39.878	215.15	-221.99	66.741	298.18	-439.62	85.949	351.47	-492.95	94.882	459.52	-400.37	67.179	413.36
